<svg xmlns="http://www.w3.org/2000/svg" xmlns:xlink="http://www.w3.org/1999/xlink" width="1123" height="653" viewBox="0 0 1123 653" fill="none"><g  clip-path="url(#clip-path-22_13)"><path     fill="#34C9C0"  d="M0 653L1123 653L1123 0L0 0L0 653Z"></path><g  clip-path="url(#clip-path-22_6)"><path d="M1123 498.037C1047.59 505.812 1010.05 533.541 935.848 530.432C860.348 527.279 822.122 477.435 748.696 482.315C672.375 487.412 638.728 545.549 561.543 555.354C488.98 564.553 449.243 540.063 374.391 529.87C299.539 519.677 262.091 514.666 187.239 504.387C112.344 494.107 72.6498 469.228 0.086792 478.385L0.000366211 0.461426L1123 0.461426L1123 498.037Z"   fill="#00BAAD" ></path><path d="M1123 440.851C1049.05 448.064 1010.7 437.352 935.848 435.149C860.996 432.947 822.727 438.734 748.696 429.75C673.023 420.55 635.316 385.349 561.543 389.625C485.568 394.03 450.064 448.237 374.391 451.39C300.36 454.456 263.128 416.965 187.239 405.131C113.423 393.642 72.693 382.153 0.086792 393.08L0.000366211 0.463257L1123 0.463257L1123 440.851Z"   fill="#00A69A" ></path><path d="M1123 355.546C1047.67 342.243 1011.05 317.278 935.848 315.464C861.298 313.693 823.245 332.482 748.696 346.605C673.541 360.816 637.173 380.598 561.543 386.299C487.425 391.871 449.287 375.976 374.391 374.767C299.582 373.557 261.53 385.824 187.239 380.166C111.782 374.421 75.1981 347.944 0.086792 346.346L0.000366211 0.462769L1123 0.462769L1123 355.546Z"   fill="#009388" ></path><path d="M1123 260.307C1048.67 256.247 1010.53 276.029 935.848 274.086C860.78 272.099 823.418 260.955 748.696 250.459C673.671 239.921 635.661 217.763 561.543 221.434C485.957 225.192 450.366 257.025 374.391 269.075C300.619 280.78 262.178 278.405 187.239 280.737C112.43 283.07 74.8094 283.847 0.086792 280.651L0.000366211 0.462524L1123 0.462524L1123 260.307Z"   fill="#007F76" ></path><path d="M1123 177.378C1047.2 165.803 1010.31 131.594 935.848 133.193C860.607 134.791 824.844 171.979 748.696 185.369C675.139 198.283 635.834 203.466 561.543 198.974C486.086 194.439 449.891 168.653 374.391 162.822C300.187 157.121 261.141 160.058 187.239 170.165C111.393 180.531 75.3708 212.018 0.086792 214.048L0.000366211 0.462936L1123 0.462936L1123 177.378Z"   fill="#006C64" ></path><path d="M1123 115.916C1048.97 126.498 1008.84 137.339 935.848 127.578C859.138 117.341 824.973 72.0754 748.696 65.8989C675.225 59.9383 636.482 85.2058 561.543 97.2566C486.778 109.307 446.997 134.791 374.391 126.152C297.293 116.995 264.078 60.3703 187.239 52.7684C114.374 45.5553 75.5437 78.9861 0.086792 89.1796L0.000366211 0.462616L1123 0.462616L1123 115.916Z"   fill="#004540" ></path></g></g><defs><clipPath id="clip-path-22_13"><path d="M0 653L1123 653L1123 0L0 0L0 653Z" fill="white"/></clipPath><clipPath id="clip-path-22_6"><path d="M1123 0.461609L0 0.461609L0 864.308L1123 864.308L1123 0.461609Z" fill="white"/></clipPath></defs></svg>